<svg width="16" height="16" viewBox="0 0 24 24" fill="currentColor" data-omni-part="icon-svg" data-omni-icon-size="small"><path fillrule="evenodd" cliprule="evenOdd" d="M3 6a3 3 0 013-3h1.5a1 1 0 010 2H6a1 1 0 00-1 1v1.5a1 1 0 01-2 0V6zm12.5-2a1 1 0 011-1H18a3 3 0 013 3v1.5a1 1 0 11-2 0V6a1 1 0 00-1-1h-1.5a1 1 0 01-1-1zM4 15.5a1 1 0 011 1V18a1 1 0 001 1h1.5a1 1 0 110 2H6a3 3 0 01-3-3v-1.5a1 1 0 011-1zm16 0a1 1 0 011 1V18a3 3 0 01-3 3h-1.5a1 1 0 110-2H18a1 1 0 001-1v-1.5a1 1 0 011-1z"></path></svg>