<svg width="24" height="24" viewBox="0 0 24 24" xmlns="http://www.w3.org/2000/svg" fill="currentColor" data-omni-part="icon-svg" data-omni-icon-size="medium">
  <path fill-rule="evenodd" clip-rule="evenodd" d="M12.005 5c5.25 0 9.73 5.36 10.77 6.7.14.18.14.42 0 .6-1.04 1.34-5.52 6.7-10.77 6.7s-9.74-5.36-10.78-6.7a.481.481 0 0 1 0-.6c1.04-1.34 5.53-6.7 10.78-6.7Zm-8.43 7c1.55 1.75 4.88 5 8.43 5s6.88-3.25 8.43-5c-1.55-1.75-4.88-5-8.43-5s-6.88 3.25-8.43 5Zm5.43 0c0-1.66 1.34-3 3-3v3l2.12-2.12a2.996 2.996 0 0 1-2.12 5.12c-1.66 0-3-1.34-3-3Z"></path>
</svg>