<svg xmlns="http://www.w3.org/2000/svg" viewBox="0 0 32 16"><g _ngcontent-ng-c2566959280="" id="Symbols"><g _ngcontent-ng-c2566959280=""><path _ngcontent-ng-c2566959280="" d="M0 0h32v16H0z" fill="#f00"></path><path _ngcontent-ng-c2566959280="" fill="#fff" d="M8 0h16v16H8z"></path><path _ngcontent-ng-c2566959280="" d="M16 1.5l-1.1 2c-.1.2-.3.2-.6.1l-.8-.4.6 3.1c.1.6-.3.6-.5.3l-1.4-1.5-.2.8c0 .1-.1.2-.3.2L10 5.7l.5 1.7c.1.4.2.5-.1.6l-.6.3 3 2.4c.1.1.2.3.1.4l-.3.9c1-.1 2-.3 3-.4.1 0 .2.1.2.2l-.1 3.2h.5l-.1-3.2c0-.1.1-.3.2-.3 1 .1 2 .3 3 .4L19 11c0-.2 0-.3.1-.4l3-2.4-.5-.2c-.3-.1-.2-.3-.1-.6l.5-1.7-1.7.4c-.2 0-.3-.1-.3-.2l-.2-.8-1.4 1.5c-.2.2-.6.2-.5-.3l.6-3.1-.8.4c-.2.1-.4.1-.6-.1" fill="#f00"></path></g></g></svg>